<svg viewBox="-7.44 -7.44 38.88 38.88" fill="none" xmlns="http://www.w3.org/2000/svg" stroke="#ffffff" transform="rotate(0)matrix(1, 0, 0, 1, 0, 0)"><g id="SVGRepo_bgCarrier" stroke-width="0" transform="translate(0,0), scale(1)"><path transform="translate(-7.44, -7.44), scale(2.43)" fill="#ff5900" d="M9.166.33a2.25 2.25 0 00-2.332 0l-5.25 3.182A2.25 2.25 0 00.5 5.436v5.128a2.25 2.25 0 001.084 1.924l5.25 3.182a2.25 2.25 0 002.332 0l5.25-3.182a2.25 2.25 0 001.084-1.924V5.436a2.25 2.25 0 00-1.084-1.924L9.166.33z" strokewidth="0"></path></g><g id="SVGRepo_tracerCarrier" stroke-linecap="round" stroke-linejoin="round" stroke="#cf0707" stroke-width="0.336"></g><g id="SVGRepo_iconCarrier"> <path d="M22 5.15V8.85C22 11.1 21.1 12 18.85 12H16.15C13.9 12 13 11.1 13 8.85V5.15C13 2.9 13.9 2 16.15 2H18.85C21.1 2 22 2.9 22 5.15Z" stroke="#ffffff" stroke-width="2.4" stroke-linecap="round" stroke-linejoin="round"></path> <path d="M11 15.15V18.85C11 21.1 10.1 22 7.85 22H5.15C2.9 22 2 21.1 2 18.85V15.15C2 12.9 2.9 12 5.15 12H7.85C10.1 12 11 12.9 11 15.15Z" stroke="#ffffff" stroke-width="2.4" stroke-linecap="round" stroke-linejoin="round"></path> <path d="M22 15C22 18.87 18.87 22 15 22L16.05 20.25" stroke="#ffffff" stroke-width="2.4" stroke-linecap="round" stroke-linejoin="round"></path> <path d="M2 9C2 5.13 5.13 2 9 2L7.95 3.75" stroke="#ffffff" stroke-width="2.4" stroke-linecap="round" stroke-linejoin="round"></path> </g></svg>